STARTFONT 2.1
COMMENT CVS:Version $Id 1.5
COMMENT
COMMENT (C) CENA/J.L. Vinot, 2002, CENA (Centre d'Etudes de la Navigation Aťrienne)
COMMENT This software is free software; you can redistribute it and/or modify it 
COMMENT under the terms of the GNU Lesser General Public License as published by the Free Software Foundation: 
COMMENT either version 2 of the License, or (at your option) any later version.
COMMENT 
COMMENT This software is distributed in the hope that it will be useful, but WITHOUT ANY WARRANTY; 
COMMENT without even the implied warranty of MERCHANTABILITY or FITNESS FOR A PARTICULAR PURPOSE.  
COMMENT See the GNU Lesser General Public License for more details.
COMMENT 
COMMENT You should have received a copy of the GNU Lesser General Public License along with this software; 
COMMENT if not, write to the Free Software Foundation, Inc., 59 Temple Place - Suite 330, Boston, MA  02111-1307, USA.
COMMENT Please refer to http://www.gnu.org/copyleft/gpl.html
COMMENT 
COMMENT This font has been originally designed by CENA/France for the specific needs of Air Traffic Control. 
COMMENT For example, it must offer good legibility and avoid any confusion between character shapes. 
COMMENT CENA would like to preserve its qualities. If you have any specific need, you can modify this font, 
COMMENT but we would like you to change its name to avoid any confusion between your new font and the original one designed by CENA.
COMMENT Note however, that as implied in the LGPL licence, you must credit CENA for the original work. 
COMMENT Finally, CENA would appreciate it if you send back any enhancement or extension made to the original work. 
COMMENT This statement must be fully included with any further distribution of the font.
COMMENT 
COMMENT to contact us: email to:  pii-contact@cena.fr
COMMENT write to: CENA, 7 avenue Edouard Belin, 31400 Toulouse, France 
FONT -CenaPii-Bleriot Radar-Medium-R-Condensed--22-220-75-75-P-121-ISO8859-15
SIZE 22 72 72

STARTCHAR gcid14
ENCODING 20
SWIDTH 590 0
DWIDTH 13 0
BBX 10 3 1 7
BITMAP
FFC0
FFC0
FFC0
ENDCHAR
STARTCHAR gcid15
ENCODING 21
SWIDTH 636 0
DWIDTH 14 0
BBX 12 13 1 2
BITMAP
4000
E000
7000
3800
1C10
0E30
0F70
07F0
03F0
03F0
07F0
0FF0
0FF0
ENDCHAR
STARTCHAR gcid16
ENCODING 22
SWIDTH 636 0
DWIDTH 14 0
BBX 12 13 1 0
BITMAP
0FF0
0FF0
07F0
03F0
03F0
07F0
0F70
0E30
1C10
3800
7000
E000
4000
ENDCHAR
STARTCHAR space
ENCODING 32
SWIDTH 636 0
DWIDTH 14 0
BBX 0 0 0 0
BITMAP
ENDCHAR
STARTCHAR exclam
ENCODING 33
SWIDTH 318 0
DWIDTH 7 0
BBX 3 16 2 0
BITMAP
E0
E0
E0
E0
E0
E0
E0
E0
E0
E0
E0
40
00
40
E0
E0
ENDCHAR
STARTCHAR quotedbl
ENCODING 34
SWIDTH 454 0
DWIDTH 10 0
BBX 6 5 2 11
BITMAP
CC
CC
CC
CC
CC
ENDCHAR
STARTCHAR numbersign
ENCODING 35
SWIDTH 681 0
DWIDTH 15 0
BBX 13 12 1 1
BITMAP
0CC0
0CC0
7FF8
7FF8
0CC0
1980
1980
1980
FFF0
FFF0
3300
3300
ENDCHAR
STARTCHAR dollar
ENCODING 36
SWIDTH 545 0
DWIDTH 12 0
BBX 10 20 2 -2
BITMAP
0C00
0C00
3F00
7F80
ED80
EC80
EC00
FC00
7C00
3E00
1F00
0F80
0FC0
0DC0
CDC0
EDC0
FF80
3F00
0C00
0C00
ENDCHAR
STARTCHAR percent
ENCODING 37
SWIDTH 681 0
DWIDTH 15 0
BBX 13 16 1 0
BITMAP
3060
7860
CCC0
CCC0
CD80
7980
3300
0300
0600
0660
0CF0
0D98
1998
1998
30F0
3060
ENDCHAR
STARTCHAR ampersand
ENCODING 38
SWIDTH 727 0
DWIDTH 16 0
BBX 14 16 2 0
BITMAP
0F00
1F80
3BC0
31C0
3BC0
3F80
1F00
1E00
3F00
7F80
E7F0
E3F0
E1E0
73F0
7FF8
1E3C
ENDCHAR
STARTCHAR quotesingle
ENCODING 39
SWIDTH 272 0
DWIDTH 6 0
BBX 2 5 2 11
BITMAP
C0
C0
C0
C0
C0
ENDCHAR
STARTCHAR parenleft
ENCODING 40
SWIDTH 409 0
DWIDTH 9 0
BBX 6 20 2 -3
BITMAP
0C
18
30
70
70
60
E0
E0
E0
E0
E0
E0
E0
E0
60
70
70
30
18
0C
ENDCHAR
STARTCHAR parenright
ENCODING 41
SWIDTH 409 0
DWIDTH 9 0
BBX 6 20 2 -3
BITMAP
C0
60
30
38
38
18
1C
1C
1C
1C
1C
1C
1C
1C
18
38
38
30
60
C0
ENDCHAR
STARTCHAR asterisk
ENCODING 42
SWIDTH 545 0
DWIDTH 12 0
BBX 10 9 1 7
BITMAP
0C00
CCC0
6D80
3F00
1E00
3F00
6D80
CCC0
0C00
ENDCHAR
STARTCHAR plus
ENCODING 43
SWIDTH 545 0
DWIDTH 12 0
BBX 9 10 1 1
BITMAP
1C00
1C00
1C00
1C00
FF80
FF80
1C00
1C00
1C00
1C00
ENDCHAR
STARTCHAR comma
ENCODING 44
SWIDTH 363 0
DWIDTH 8 0
BBX 5 5 0 -2
BITMAP
38
38
70
60
C0
ENDCHAR
STARTCHAR hyphen
ENCODING 45
SWIDTH 545 0
DWIDTH 12 0
BBX 8 3 2 4
BITMAP
FF
FF
FF
ENDCHAR
STARTCHAR period
ENCODING 46
SWIDTH 363 0
DWIDTH 8 0
BBX 3 3 2 0
BITMAP
E0
E0
E0
ENDCHAR
STARTCHAR slash
ENCODING 47
SWIDTH 409 0
DWIDTH 9 0
BBX 9 19 0 -2
BITMAP
0380
0300
0300
0700
0600
0600
0E00
0C00
0C00
1C00
1800
1800
3800
3000
3000
7000
6000
6000
E000
ENDCHAR
STARTCHAR zero
ENCODING 48
SWIDTH 636 0
DWIDTH 14 0
BBX 11 16 2 0
BITMAP
1F00
3F80
71C0
60C0
E2E0
E6E0
E6E0
E4E0
E4E0
ECE0
ECE0
E8E0
60C0
71C0
3F80
1F00
ENDCHAR
STARTCHAR one
ENCODING 49
SWIDTH 590 0
DWIDTH 13 0
BBX 8 16 2 0
BITMAP
03
07
0F
1F
3F
77
E7
C7
07
07
07
07
07
07
07
07
ENDCHAR
STARTCHAR two
ENCODING 50
SWIDTH 636 0
DWIDTH 14 0
BBX 11 16 2 0
BITMAP
1E00
7F80
7380
E1C0
01C0
01C0
01C0
0380
0380
0700
0E00
1C00
3C00
7800
FFE0
FFE0
ENDCHAR
STARTCHAR three
ENCODING 51
SWIDTH 636 0
DWIDTH 14 0
BBX 11 16 2 0
BITMAP
7FE0
7FC0
0380
0700
0F00
1E00
1F00
07C0
01C0
00E0
00E0
40E0
60E0
F1C0
7FC0
1F00
ENDCHAR
STARTCHAR four
ENCODING 52
SWIDTH 636 0
DWIDTH 14 0
BBX 12 16 2 0
BITMAP
0380
0700
0700
0E00
0E00
1C00
1C40
38C0
39C0
71C0
71C0
FFF0
FFF0
01C0
01C0
01C0
ENDCHAR
STARTCHAR five
ENCODING 53
SWIDTH 636 0
DWIDTH 14 0
BBX 11 16 2 0
BITMAP
3FC0
3FC0
3800
3800
3800
3F00
3FC0
31C0
00E0
00E0
00E0
00E0
60E0
F1C0
7FC0
1F00
ENDCHAR
STARTCHAR six
ENCODING 54
SWIDTH 636 0
DWIDTH 14 0
BBX 11 16 2 0
BITMAP
0700
0E00
1C00
3800
3800
7000
6F00
FFC0
F1C0
E0E0
E0E0
E0E0
E0E0
71C0
7FC0
1F00
ENDCHAR
STARTCHAR seven
ENCODING 55
SWIDTH 636 0
DWIDTH 14 0
BBX 11 16 2 0
BITMAP
FFE0
FFC0
01C0
0380
0380
0700
0700
0700
0E00
0E00
0E00
0E00
1C00
1C00
1C00
1C00
ENDCHAR
STARTCHAR eight
ENCODING 56
SWIDTH 636 0
DWIDTH 14 0
BBX 11 16 2 0
BITMAP
1F00
3F80
71C0
71C0
79C0
3F80
1F00
3F00
7780
E3C0
E1E0
E0E0
E0E0
71E0
7FC0
1F00
ENDCHAR
STARTCHAR nine
ENCODING 57
SWIDTH 636 0
DWIDTH 14 0
BBX 11 16 2 0
BITMAP
1F00
7FC0
71C0
E0E0
E0E0
E0E0
E0E0
71E0
7FE0
1EC0
01C0
0380
0380
0700
0E00
1C00
ENDCHAR
STARTCHAR colon
ENCODING 58
SWIDTH 363 0
DWIDTH 8 0
BBX 3 12 2 0
BITMAP
E0
E0
E0
00
00
00
00
00
00
E0
E0
E0
ENDCHAR
STARTCHAR semicolon
ENCODING 59
SWIDTH 363 0
DWIDTH 8 0
BBX 5 14 0 -2
BITMAP
38
38
38
00
00
00
00
00
00
38
38
70
60
C0
ENDCHAR
STARTCHAR less
ENCODING 60
SWIDTH 454 0
DWIDTH 10 0
BBX 8 12 1 0
BITMAP
07
0E
1C
38
70
E0
E0
70
38
1C
0E
07
ENDCHAR
STARTCHAR equal
ENCODING 61
SWIDTH 454 0
DWIDTH 10 0
BBX 9 8 1 2
BITMAP
FF80
FF80
0000
0000
0000
0000
FF80
FF80
ENDCHAR
STARTCHAR greater
ENCODING 62
SWIDTH 454 0
DWIDTH 10 0
BBX 8 12 1 0
BITMAP
E0
70
38
1C
0E
07
07
0E
1C
38
70
E0
ENDCHAR
STARTCHAR question
ENCODING 63
SWIDTH 545 0
DWIDTH 12 0
BBX 10 16 1 0
BITMAP
0F00
3F80
71C0
E1C0
E1C0
01C0
0380
0700
0E00
1C00
1C00
1C00
0000
0800
1C00
1C00
ENDCHAR
STARTCHAR at
ENCODING 64
SWIDTH 863 0
DWIDTH 19 0
BBX 18 19 1 -3
BITMAP
03F000
0FFC00
1E0F00
380300
700180
60F980
E3F8C0
C3B8C0
C738C0
C738C0
C638C0
C738C0
E778C0
63F980
73FF80
300600
1C0000
0F0C00
03F000
ENDCHAR
STARTCHAR A
ENCODING 65
SWIDTH 636 0
DWIDTH 14 0
BBX 13 16 1 0
BITMAP
0700
0700
0780
0F80
0D80
0DC0
1DC0
18C0
18E0
3060
3FE0
3FF0
7070
6030
6038
E038
ENDCHAR
STARTCHAR B
ENCODING 66
SWIDTH 590 0
DWIDTH 13 0
BBX 10 16 2 0
BITMAP
FC00
FF00
E700
E380
E380
E380
E700
FE00
FF00
E380
E1C0
E1C0
E1C0
E3C0
FF80
FE00
ENDCHAR
STARTCHAR C
ENCODING 67
SWIDTH 590 0
DWIDTH 13 0
BBX 11 16 2 0
BITMAP
07C0
1FE0
3C40
7000
7000
E000
E000
E000
E000
E000
E000
7000
7000
3C40
1FE0
07C0
ENDCHAR
STARTCHAR D
ENCODING 68
SWIDTH 681 0
DWIDTH 15 0
BBX 12 16 2 0
BITMAP
FE00
FF80
E3C0
E0E0
E0E0
E070
E070
E070
E070
E070
E070
E0E0
E0E0
E3C0
FF80
FE00
ENDCHAR
STARTCHAR E
ENCODING 69
SWIDTH 545 0
DWIDTH 12 0
BBX 9 16 2 0
BITMAP
FF00
FF00
E000
E000
E000
E000
E000
FE00
FE00
E000
E000
E000
E000
E000
FF80
FF80
ENDCHAR
STARTCHAR F
ENCODING 70
SWIDTH 454 0
DWIDTH 10 0
BBX 8 16 2 0
BITMAP
FF
FF
E0
E0
E0
E0
E0
FE
FE
E0
E0
E0
E0
E0
E0
E0
ENDCHAR
STARTCHAR G
ENCODING 71
SWIDTH 681 0
DWIDTH 15 0
BBX 12 16 2 0
BITMAP
07C0
1FE0
3C40
7000
7000
E000
E000
E3F0
E3F0
E070
E070
7070
7070
3C70
1FF0
07F0
ENDCHAR
STARTCHAR H
ENCODING 72
SWIDTH 636 0
DWIDTH 14 0
BBX 11 16 2 0
BITMAP
E0E0
E0E0
E0E0
E0E0
E0E0
E0E0
E0E0
FFE0
FFE0
E0E0
E0E0
E0E0
E0E0
E0E0
E0E0
E0E0
ENDCHAR
STARTCHAR I
ENCODING 73
SWIDTH 363 0
DWIDTH 8 0
BBX 3 16 3 0
BITMAP
E0
E0
E0
E0
E0
E0
E0
E0
E0
E0
E0
E0
E0
E0
E0
E0
ENDCHAR
STARTCHAR J
ENCODING 74
SWIDTH 363 0
DWIDTH 8 0
BBX 7 16 0 0
BITMAP
0E
0E
0E
0E
0E
0E
0E
0E
0E
0E
0E
0E
4E
EE
FC
78
ENDCHAR
STARTCHAR K
ENCODING 75
SWIDTH 590 0
DWIDTH 13 0
BBX 12 16 2 0
BITMAP
E1C0
E380
E700
EE00
FC00
F800
F000
F000
F800
FC00
FE00
EF00
E780
E3C0
E1E0
E0F0
ENDCHAR
STARTCHAR L
ENCODING 76
SWIDTH 409 0
DWIDTH 9 0
BBX 7 16 2 0
BITMAP
E0
E0
E0
E0
E0
E0
E0
E0
E0
E0
E0
E0
E0
E0
FE
FE
ENDCHAR
STARTCHAR M
ENCODING 77
SWIDTH 772 0
DWIDTH 17 0
BBX 14 16 2 0
BITMAP
C00C
E01C
E01C
F03C
F03C
F87C
F87C
FCFC
ECDC
EFDC
E79C
E79C
E31C
E31C
E01C
E01C
ENDCHAR
STARTCHAR N
ENCODING 78
SWIDTH 636 0
DWIDTH 14 0
BBX 11 16 2 0
BITMAP
E0E0
E0E0
F0E0
F0E0
F8E0
F8E0
FCE0
ECE0
EEE0
E6E0
E7E0
E3E0
E3E0
E1E0
E1E0
E0E0
ENDCHAR
STARTCHAR O
ENCODING 79
SWIDTH 818 0
DWIDTH 18 0
BBX 15 16 2 0
BITMAP
07C0
1FF0
3C78
701C
701C
E00E
E00E
E00E
E00E
E00E
E00E
701C
701C
3C78
1FF0
07C0
ENDCHAR
STARTCHAR P
ENCODING 80
SWIDTH 545 0
DWIDTH 12 0
BBX 10 16 2 0
BITMAP
FC00
FF00
E780
E380
E1C0
E1C0
E1C0
E380
E780
FF00
FC00
E000
E000
E000
E000
E000
ENDCHAR
STARTCHAR Q
ENCODING 81
SWIDTH 818 0
DWIDTH 18 0
BBX 16 16 2 0
BITMAP
07E0
1FF0
3C78
701C
701C
E00E
E00E
E00E
E78E
EFCE
F9EE
70FC
707C
3C7C
1FFE
07CF
ENDCHAR
STARTCHAR R
ENCODING 82
SWIDTH 590 0
DWIDTH 13 0
BBX 12 16 2 0
BITMAP
FE00
FF80
E3C0
E1C0
E1C0
E1C0
E380
E780
FE00
FC00
FE00
EF00
E780
E3C0
E1E0
E0F0
ENDCHAR
STARTCHAR S
ENCODING 83
SWIDTH 545 0
DWIDTH 12 0
BBX 11 16 1 0
BITMAP
1F00
3F80
3980
7080
7000
3800
3E00
1F80
07C0
01E0
00E0
00E0
60E0
F1C0
7FC0
1F00
ENDCHAR
STARTCHAR T
ENCODING 84
SWIDTH 500 0
DWIDTH 11 0
BBX 9 16 1 0
BITMAP
FF80
FF80
1C00
1C00
1C00
1C00
1C00
1C00
1C00
1C00
1C00
1C00
1C00
1C00
1C00
1C00
ENDCHAR
STARTCHAR U
ENCODING 85
SWIDTH 636 0
DWIDTH 14 0
BBX 11 16 2 0
BITMAP
E0E0
E0E0
E0E0
E0E0
E0E0
E0E0
E0E0
E0E0
E0E0
E0E0
E0E0
E0E0
E0E0
71C0
7FC0
1F00
ENDCHAR
STARTCHAR V
ENCODING 86
SWIDTH 636 0
DWIDTH 14 0
BBX 13 16 1 0
BITMAP
E018
E038
E030
7030
7070
7060
3860
38E0
38C0
38C0
1DC0
1D80
1D80
0F80
0F00
0F00
ENDCHAR
STARTCHAR W
ENCODING 87
SWIDTH 863 0
DWIDTH 19 0
BBX 18 16 1 0
BITMAP
E001C0
E1C1C0
61C180
71C180
71E380
71E300
31E300
39E300
3B7300
3B7700
1B3600
1B3600
1F3E00
1E3E00
0E1C00
0E1C00
ENDCHAR
STARTCHAR X
ENCODING 88
SWIDTH 590 0
DWIDTH 13 0
BBX 11 16 2 0
BITMAP
E0E0
E1C0
7180
7380
3B00
1F00
1E00
0E00
0E00
1F00
1F00
3B80
3380
71C0
60E0
E0E0
ENDCHAR
STARTCHAR Y
ENCODING 89
SWIDTH 545 0
DWIDTH 12 0
BBX 11 16 1 0
BITMAP
E060
E060
70C0
70C0
3180
3980
1B00
1F00
0E00
0E00
0E00
0E00
0E00
0E00
0E00
0E00
ENDCHAR
STARTCHAR Z
ENCODING 90
SWIDTH 590 0
DWIDTH 13 0
BBX 11 16 2 0
BITMAP
FFC0
FF80
0380
0700
0700
0E00
0E00
1C00
1C00
3800
3800
7000
7000
E000
FFE0
FFE0
ENDCHAR
STARTCHAR bracketleft
ENCODING 91
SWIDTH 409 0
DWIDTH 9 0
BBX 5 20 3 -3
BITMAP
F8
E0
E0
E0
E0
E0
E0
E0
E0
E0
E0
E0
E0
E0
E0
E0
E0
E0
E0
F8
ENDCHAR
STARTCHAR backslash
ENCODING 92
SWIDTH 409 0
DWIDTH 9 0
BBX 9 19 0 -2
BITMAP
E000
6000
6000
7000
3000
3000
3800
1800
1800
1C00
0C00
0C00
0E00
0600
0600
0700
0300
0300
0380
ENDCHAR
STARTCHAR bracketright
ENCODING 93
SWIDTH 409 0
DWIDTH 9 0
BBX 5 20 1 -3
BITMAP
F8
38
38
38
38
38
38
38
38
38
38
38
38
38
38
38
38
38
38
F8
ENDCHAR
STARTCHAR asciicircum
ENCODING 94
SWIDTH 500 0
DWIDTH 11 0
BBX 9 5 2 11
BITMAP
0800
1C00
3600
6300
C180
ENDCHAR
STARTCHAR underscore
ENCODING 95
SWIDTH 636 0
DWIDTH 14 0
BBX 14 2 0 -4
BITMAP
FFFC
FFFC
ENDCHAR
STARTCHAR a
ENCODING 97
SWIDTH 545 0
DWIDTH 12 0
BBX 10 12 2 0
BITMAP
3F00
7F80
01C0
01C0
0FC0
3FC0
71C0
E1C0
E1C0
E3C0
7FC0
3DC0
ENDCHAR
STARTCHAR b
ENCODING 98
SWIDTH 590 0
DWIDTH 13 0
BBX 10 16 2 0
BITMAP
E000
E000
E000
E000
EE00
FF80
F380
E1C0
E1C0
E1C0
E1C0
E1C0
E1C0
E380
FF80
FE00
ENDCHAR
STARTCHAR c
ENCODING 99
SWIDTH 500 0
DWIDTH 11 0
BBX 9 12 2 0
BITMAP
1F00
7F80
7100
E000
E000
E000
E000
E000
E000
7100
7F80
1F00
ENDCHAR
STARTCHAR d
ENCODING 100
SWIDTH 590 0
DWIDTH 13 0
BBX 10 16 2 0
BITMAP
01C0
01C0
01C0
01C0
1DC0
7FC0
73C0
E1C0
E1C0
E1C0
E1C0
E1C0
E1C0
71C0
7FC0
1FC0
ENDCHAR
STARTCHAR e
ENCODING 101
SWIDTH 590 0
DWIDTH 13 0
BBX 10 12 2 0
BITMAP
1E00
7F80
7380
E1C0
E1C0
E7C0
FF00
F800
E000
7180
7FC0
1F00
ENDCHAR
STARTCHAR f
ENCODING 102
SWIDTH 409 0
DWIDTH 9 0
BBX 9 16 1 0
BITMAP
0F00
1F80
3800
3800
3800
FF00
FF00
3800
3800
3800
3800
3800
3800
3800
3800
3800
ENDCHAR
STARTCHAR g
ENCODING 103
SWIDTH 590 0
DWIDTH 13 0
BBX 10 16 2 -4
BITMAP
0FC0
3FC0
71C0
61C0
E1C0
E1C0
E1C0
E1C0
E1C0
73C0
7FC0
1DC0
01C0
01C0
1F80
1F00
ENDCHAR
STARTCHAR h
ENCODING 104
SWIDTH 590 0
DWIDTH 13 0
BBX 10 16 2 0
BITMAP
E000
E000
E000
E000
EF00
FF80
F1C0
E1C0
E1C0
E1C0
E1C0
E1C0
E1C0
E1C0
E1C0
E1C0
ENDCHAR
STARTCHAR i
ENCODING 105
SWIDTH 318 0
DWIDTH 7 0
BBX 3 17 3 0
BITMAP
E0
E0
40
00
00
20
60
E0
E0
E0
E0
E0
E0
E0
E0
E0
E0
ENDCHAR
STARTCHAR j
ENCODING 106
SWIDTH 318 0
DWIDTH 7 0
BBX 6 21 0 -4
BITMAP
1C
1C
08
00
00
04
0C
1C
1C
1C
1C
1C
1C
1C
1C
1C
1C
1C
38
F8
E0
ENDCHAR
STARTCHAR k
ENCODING 107
SWIDTH 545 0
DWIDTH 12 0
BBX 10 16 2 0
BITMAP
E000
E000
E000
E000
E380
E700
EE00
FC00
F800
F000
F800
FC00
FE00
EF00
E780
E3C0
ENDCHAR
STARTCHAR l
ENCODING 108
SWIDTH 409 0
DWIDTH 9 0
BBX 7 16 2 0
BITMAP
E0
E0
E0
E0
E0
E0
E0
E0
E0
E0
E0
E0
E0
70
7E
1E
ENDCHAR
STARTCHAR m
ENCODING 109
SWIDTH 909 0
DWIDTH 20 0
BBX 17 12 2 0
BITMAP
EF3E00
FFFF00
F1E380
E1C380
E1C380
E1C380
E1C380
E1C380
E1C380
E1C380
E1C380
E1C380
ENDCHAR
STARTCHAR n
ENCODING 110
SWIDTH 590 0
DWIDTH 13 0
BBX 10 12 2 0
BITMAP
EF00
FF80
F1C0
E1C0
E1C0
E1C0
E1C0
E1C0
E1C0
E1C0
E1C0
E1C0
ENDCHAR
STARTCHAR o
ENCODING 111
SWIDTH 681 0
DWIDTH 15 0
BBX 12 12 2 0
BITMAP
0F00
3FC0
79E0
70E0
E070
E070
E070
E070
70E0
79E0
3FC0
0F00
ENDCHAR
STARTCHAR p
ENCODING 112
SWIDTH 590 0
DWIDTH 13 0
BBX 10 16 2 -4
BITMAP
FE00
FF80
E380
E1C0
E1C0
E1C0
E1C0
E1C0
E1C0
F380
FF80
EE00
E000
E000
E000
E000
ENDCHAR
STARTCHAR q
ENCODING 113
SWIDTH 590 0
DWIDTH 13 0
BBX 10 16 2 -4
BITMAP
1FC0
7FC0
71C0
E1C0
E1C0
E1C0
E1C0
E1C0
E1C0
73C0
7FC0
1DC0
01C0
01C0
01C0
01C0
ENDCHAR
STARTCHAR r
ENCODING 114
SWIDTH 409 0
DWIDTH 9 0
BBX 7 12 2 0
BITMAP
EE
FE
F2
E0
E0
E0
E0
E0
E0
E0
E0
E0
ENDCHAR
STARTCHAR s
ENCODING 115
SWIDTH 454 0
DWIDTH 10 0
BBX 8 12 1 0
BITMAP
1E
3F
72
70
78
3C
1E
0F
87
C7
FE
7C
ENDCHAR
STARTCHAR t
ENCODING 116
SWIDTH 409 0
DWIDTH 9 0
BBX 8 16 1 0
BITMAP
18
38
38
38
FF
FF
38
38
38
38
38
38
38
1C
1F
07
ENDCHAR
STARTCHAR u
ENCODING 117
SWIDTH 590 0
DWIDTH 13 0
BBX 10 12 2 0
BITMAP
E1C0
E1C0
E1C0
E1C0
E1C0
E1C0
E1C0
E1C0
E1C0
E3C0
7FC0
3DC0
ENDCHAR
STARTCHAR v
ENCODING 118
SWIDTH 500 0
DWIDTH 11 0
BBX 11 12 0 0
BITMAP
E0E0
E0C0
70C0
71C0
7180
3980
3B80
1B00
1F00
1F00
0E00
0E00
ENDCHAR
STARTCHAR w
ENCODING 119
SWIDTH 727 0
DWIDTH 16 0
BBX 16 12 0 0
BITMAP
C003
E183
E187
61C6
73C6
73CE
32EC
3E6C
3E7C
1C78
1C38
1C38
ENDCHAR
STARTCHAR x
ENCODING 120
SWIDTH 500 0
DWIDTH 11 0
BBX 10 12 1 0
BITMAP
E1C0
7180
3380
3B00
1E00
1E00
1E00
3F00
3300
7380
6180
E1C0
ENDCHAR
STARTCHAR y
ENCODING 121
SWIDTH 590 0
DWIDTH 13 0
BBX 12 16 1 -4
BITMAP
E070
7060
7060
38E0
38C0
1CC0
1DC0
0F80
0F80
0700
0700
0700
0600
0E00
0C00
1C00
ENDCHAR
STARTCHAR z
ENCODING 122
SWIDTH 454 0
DWIDTH 10 0
BBX 9 12 1 0
BITMAP
7F00
FF00
0E00
0C00
1C00
1800
3800
3000
7000
E000
FF80
FF80
ENDCHAR
STARTCHAR braceleft
ENCODING 123
SWIDTH 409 0
DWIDTH 9 0
BBX 7 20 1 -3
BITMAP
1E
38
38
38
38
38
38
38
30
E0
30
38
38
38
38
38
38
38
38
1E
ENDCHAR
STARTCHAR bar
ENCODING 124
SWIDTH 363 0
DWIDTH 8 0
BBX 2 20 3 -3
BITMAP
C0
C0
C0
C0
C0
C0
C0
C0
C0
C0
C0
C0
C0
C0
C0
C0
C0
C0
C0
C0
ENDCHAR
STARTCHAR braceright
ENCODING 125
SWIDTH 409 0
DWIDTH 9 0
BBX 7 20 1 -3
BITMAP
F0
38
38
38
38
38
38
38
18
0E
18
38
38
38
38
38
38
38
38
F0
ENDCHAR
STARTCHAR Euro
ENCODING 164
SWIDTH 636 0
DWIDTH 14 0
BBX 13 16 0 0
BITMAP
03E0
0FF0
1E18
1C08
3800
FFF0
FFE0
3800
FFC0
FF80
3800
3800
1C00
1E10
0FF8
03E0
ENDCHAR
STARTCHAR degree
ENCODING 176
SWIDTH 409 0
DWIDTH 9 0
BBX 7 7 1 10
BITMAP
38
7C
C6
C6
C6
7C
38
ENDCHAR
STARTCHAR Agrave
ENCODING 192
SWIDTH 636 0
DWIDTH 14 0
BBX 13 21 1 0
BITMAP
1C00
0C00
0600
0000
0000
0700
0700
0780
0F80
0D80
0DC0
1DC0
18C0
18E0
3060
3FE0
3FF0
7070
6030
6038
E038
ENDCHAR
STARTCHAR Acircumflex
ENCODING 194
SWIDTH 636 0
DWIDTH 14 0
BBX 13 21 1 0
BITMAP
0600
0F00
1980
0000
0000
0700
0700
0780
0F80
0D80
0DC0
1DC0
18C0
18E0
3060
3FE0
3FF0
7070
6030
6038
E038
ENDCHAR
STARTCHAR Ccedilla
ENCODING 199
SWIDTH 590 0
DWIDTH 13 0
BBX 11 20 2 -4
BITMAP
0FC0
1FE0
3C40
7000
7000
E000
E000
E000
E000
E000
E000
7000
7800
3C40
1FE0
0FC0
0780
01C0
0FC0
0F80
ENDCHAR
STARTCHAR Egrave
ENCODING 200
SWIDTH 545 0
DWIDTH 12 0
BBX 9 21 2 0
BITMAP
7000
3000
1800
0000
0000
FF00
FF00
E000
E000
E000
E000
E000
FE00
FE00
E000
E000
E000
E000
E000
FF80
FF80
ENDCHAR
STARTCHAR Eacute
ENCODING 201
SWIDTH 545 0
DWIDTH 12 0
BBX 9 21 2 0
BITMAP
0E00
0C00
1800
0000
0000
FF00
FF00
E000
E000
E000
E000
E000
FE00
FE00
E000
E000
E000
E000
E000
FF80
FF80
ENDCHAR
STARTCHAR Ecircumflex
ENCODING 202
SWIDTH 545 0
DWIDTH 12 0
BBX 9 21 2 0
BITMAP
1800
3C00
6600
0000
0000
FF00
FF00
E000
E000
E000
E000
E000
FE00
FE00
E000
E000
E000
E000
E000
FF80
FF80
ENDCHAR
STARTCHAR Edieresis
ENCODING 203
SWIDTH 545 0
DWIDTH 12 0
BBX 9 20 2 0
BITMAP
6300
6300
0000
0000
FF00
FF00
E000
E000
E000
E000
E000
FE00
FE00
E000
E000
E000
E000
E000
FF80
FF80
ENDCHAR
STARTCHAR Icircumflex
ENCODING 206
SWIDTH 363 0
DWIDTH 8 0
BBX 6 21 2 0
BITMAP
30
78
CC
00
00
70
70
70
70
70
70
70
70
70
70
70
70
70
70
70
70
ENDCHAR
STARTCHAR Idieresis
ENCODING 207
SWIDTH 363 0
DWIDTH 8 0
BBX 6 20 2 0
BITMAP
CC
CC
00
00
70
70
70
70
70
70
70
70
70
70
70
70
70
70
70
70
ENDCHAR
STARTCHAR Ocircumflex
ENCODING 212
SWIDTH 818 0
DWIDTH 18 0
BBX 15 21 2 0
BITMAP
0180
03C0
0660
0000
0000
07C0
1FF0
3C78
701C
701C
E00E
E00E
E00E
E00E
E00E
E00E
701C
701C
3C78
1FF0
07C0
ENDCHAR
STARTCHAR Ugrave
ENCODING 217
SWIDTH 636 0
DWIDTH 14 0
BBX 11 21 2 0
BITMAP
3800
1800
0C00
0000
0000
E0E0
E0E0
E0E0
E0E0
E0E0
E0E0
E0E0
E0E0
E0E0
E0E0
E0E0
E0E0
E0E0
71C0
7FC0
1F00
ENDCHAR
STARTCHAR Ucircumflex
ENCODING 219
SWIDTH 636 0
DWIDTH 14 0
BBX 11 21 2 0
BITMAP
0600
0F00
1980
0000
0000
E0E0
E0E0
E0E0
E0E0
E0E0
E0E0
E0E0
E0E0
E0E0
E0E0
E0E0
E0E0
E0E0
71C0
7FC0
1F00
ENDCHAR
STARTCHAR Udieresis
ENCODING 220
SWIDTH 636 0
DWIDTH 14 0
BBX 11 20 2 0
BITMAP
1980
1980
0000
0000
E0E0
E0E0
E0E0
E0E0
E0E0
E0E0
E0E0
E0E0
E0E0
E0E0
E0E0
E0E0
E0E0
71C0
7FC0
1F00
ENDCHAR
STARTCHAR agrave
ENCODING 224
SWIDTH 545 0
DWIDTH 12 0
BBX 10 17 2 0
BITMAP
3800
1800
0C00
0000
0000
1F00
3F80
01C0
01C0
0FC0
3FC0
79C0
E1C0
E1C0
E3C0
7FC0
3DC0
ENDCHAR
STARTCHAR acircumflex
ENCODING 226
SWIDTH 545 0
DWIDTH 12 0
BBX 10 17 2 0
BITMAP
0C00
1E00
3300
0000
0000
1F00
3F80
01C0
01C0
0FC0
3FC0
79C0
E1C0
E1C0
E3C0
7FC0
3DC0
ENDCHAR
STARTCHAR ccedilla
ENCODING 231
SWIDTH 500 0
DWIDTH 11 0
BBX 10 16 2 -4
BITMAP
0F80
3FC0
7880
7000
E000
E000
E000
E000
7000
7880
3FC0
0F80
0F00
0180
1F80
1F00
ENDCHAR
STARTCHAR egrave
ENCODING 232
SWIDTH 590 0
DWIDTH 13 0
BBX 10 17 2 0
BITMAP
3800
1800
0C00
0000
0000
1E00
7F80
7380
E1C0
E1C0
E7C0
FF00
F800
E000
7180
7FC0
1F00
ENDCHAR
STARTCHAR eacute
ENCODING 233
SWIDTH 590 0
DWIDTH 13 0
BBX 10 17 2 0
BITMAP
0E00
0C00
1800
0000
0000
1E00
7F80
7380
E1C0
E1C0
E7C0
FF00
F800
E000
7180
7FC0
1F00
ENDCHAR
STARTCHAR ecircumflex
ENCODING 234
SWIDTH 590 0
DWIDTH 13 0
BBX 10 17 2 0
BITMAP
0C00
1E00
3300
0000
0000
1E00
7F80
7380
E1C0
E1C0
E7C0
FF00
F800
E000
7180
7FC0
1F00
ENDCHAR
STARTCHAR edieresis
ENCODING 235
SWIDTH 590 0
DWIDTH 13 0
BBX 10 16 2 0
BITMAP
3300
3300
0000
0000
1E00
7F80
7380
E1C0
E1C0
E7C0
FE00
F800
E000
7180
7FC0
1F00
ENDCHAR
STARTCHAR icircumflex
ENCODING 238
SWIDTH 363 0
DWIDTH 8 0
BBX 6 17 2 0
BITMAP
30
78
CC
00
00
30
70
70
70
70
70
70
70
70
70
70
70
ENDCHAR
STARTCHAR idieresis
ENCODING 239
SWIDTH 363 0
DWIDTH 8 0
BBX 6 16 1 0
BITMAP
CC
CC
00
00
18
38
38
38
38
38
38
38
38
38
38
38
ENDCHAR
STARTCHAR ocircumflex
ENCODING 244
SWIDTH 681 0
DWIDTH 15 0
BBX 12 17 2 0
BITMAP
0600
0F00
1980
0000
0000
0F00
3FC0
79E0
70E0
E070
E070
E070
E070
70E0
79E0
3FC0
0F00
ENDCHAR
STARTCHAR ugrave
ENCODING 249
SWIDTH 590 0
DWIDTH 13 0
BBX 10 17 2 0
BITMAP
7000
3000
1800
0000
0000
E1C0
E1C0
E1C0
E1C0
E1C0
E1C0
E1C0
E1C0
E1C0
E3C0
7FC0
3DC0
ENDCHAR
STARTCHAR ucircumflex
ENCODING 251
SWIDTH 590 0
DWIDTH 13 0
BBX 10 17 2 0
BITMAP
0C00
1E00
3300
0000
0000
E1C0
E1C0
E1C0
E1C0
E1C0
E1C0
E1C0
E1C0
E1C0
E3C0
7FC0
3DC0
ENDCHAR
STARTCHAR udieresis
ENCODING 252
SWIDTH 590 0
DWIDTH 13 0
BBX 10 16 2 0
BITMAP
3300
3300
0000
0000
E1C0
E1C0
E1C0
E1C0
E1C0
E1C0
E1C0
E1C0
E1C0
E3C0
7FC0
3DC0
ENDCHAR
ENDFONT
